<svg width="800" height="1000" viewBox="0 0 800 1000" fill="none" xmlns="http://www.w3.org/2000/svg">
<path d="M153.003 598.701L133.692 632.063H565.964L429.327 397.246H519.172L699.657 709.053H0L63.8752 598.701H153.003Z" fill="#238B95"/>
<path d="M504.317 371.583L349.828 104.687L304.579 182.861L414.394 371.583H504.317Z" fill="#238B95"/>
<path d="M591.965 600.029L665.893 472.311L234.036 472.311L371.42 708.411H281.571L100.343 395.322L671.835 395.322L672.206 394.68H799.956L799.585 395.322H800L736.125 505.673H735.71L636.184 677.614L591.965 600.029Z" fill="#238B95"/>
<path d="M450.172 999.687L296.426 734.074H386.353L495.421 921.513L450.172 999.687Z" fill="#238B95"/>
<path d="M348.854 78.7257L393.808 0L302.977 0.531221L348.854 78.7257Z" fill="#238B95"/>
</svg>
